<?xml version="1.0" encoding="utf-8"?>
<!-- Generator: Adobe Illustrator 16.0.0, SVG Export Plug-In . SVG Version: 6.00 Build 0)  -->
<!DOCTYPE svg PUBLIC "-//W3C//DTD SVG 1.1//EN" "http://www.w3.org/Graphics/SVG/1.1/DTD/svg11.dtd">
<svg version="1.1" id="Layer_1" xmlns="http://www.w3.org/2000/svg" xmlns:xlink="http://www.w3.org/1999/xlink" x="0px" y="0px"
	 width="324px" height="128px" viewBox="0 0 324 128" enable-background="new 0 0 324 128" xml:space="preserve">
<g>
	<rect x="26.885" y="18.563" fill="none" width="285.115" height="86.872"/>
	<path fill="#FFFFFF" d="M86.537,41.242v11.34h-34.02v22.68h-11.34v-34.02H86.537z M75.197,63.922h11.34v34.02H41.177v-11.34h34.02
		V63.922z"/>
	<path fill="#FFFFFF" d="M151.048,41.242v56.7h-45.359v-56.7h11.34v45.36h22.68v-45.36H151.048z"/>
	<path fill="#FFFFFF" d="M225.514,18.562v51.03c0,15.651-12.699,28.35-28.35,28.35c-15.662,0-28.351-12.698-28.351-28.35
		c0-15.662,12.688-28.35,28.351-28.35c6.388,0,12.265,2.097,17.01,5.67v-28.35H225.514z M180.153,69.592
		c0,9.393,7.619,17.01,17.011,17.01c9.391,0,17.01-7.617,17.01-17.01c0-9.398-7.619-17.01-17.01-17.01
		C187.772,52.582,180.153,60.193,180.153,69.592z"/>
	<path fill="#FFFFFF" d="M298.928,69.592c0,15.651-12.689,28.35-28.35,28.35c-15.662,0-28.351-12.698-28.351-28.35
		c0-15.662,12.688-28.35,28.351-28.35C286.238,41.242,298.928,53.93,298.928,69.592z M253.567,69.592
		c0,9.393,7.619,17.01,17.011,17.01c9.391,0,17.01-7.617,17.01-17.01c0-9.389-7.619-17.01-17.01-17.01
		C261.187,52.582,253.567,60.203,253.567,69.592z"/>
</g>
<g>
</g>
<g>
</g>
<g>
</g>
<g>
</g>
<g>
</g>
<g>
</g>
<g>
</g>
<g>
</g>
<g>
</g>
<g>
</g>
<g>
</g>
<g>
</g>
<g>
</g>
<g>
</g>
<g>
</g>
</svg>
